<?xml version="1.0" encoding="UTF-8"?>
<svg id="Layer_1" data-name="Layer 1" xmlns="http://www.w3.org/2000/svg" viewBox="0 0 800 800">
  <defs>
    <style>
      .cls-1 {
        fill: #252e3d;
      }

      .cls-2 {
        fill: #d3d488;
      }

      .cls-3 {
        fill: #303f52;
      }
    </style>
  </defs>
  <path class="cls-3" d="M800,400c0,220.91-179.09,400-400,400-31.23,0-61.63-3.58-90.8-10.35C132.03,748.53,0,589.68,0,400,0,179.09,179.09,0,400,0c189.12,0,347.6,131.26,389.28,307.65,7.01,29.64,10.72,60.56,10.72,92.35Z"/>
  <path class="cls-1" d="M800,400c0,220.91-179.09,400-400,400-31.23,0-61.63-3.58-90.8-10.35l-149.58-149.58V159.62l481.04-.59,148.62,148.62c7.01,29.64,10.72,60.56,10.72,92.35Z"/>
  <g>
    <path class="cls-2" d="M245.09,632.98h-34.52c-1.68,0-2.61-1.94-1.57-3.25l23.05-29.05,9.3-12.54h-26.63c-1.1,0-2-.9-2-2V216.32c0-1.1.9-2,2-2h325.55s10.08-17.78,10.08-17.78l3.18-5.22c.81-1.33-.14-3.04-1.71-3.04h-57.6c-1.67,0-2.6-1.93-1.56-3.24l20.17-25.43H161.62c-1.1,0-2,.9-2,2v476.76c0,1.1.9,2,2,2h82.51l2.66-4.36c.82-1.33-.14-3.04-1.7-3.04Z"/>
    <path class="cls-2" d="M638.38,159.62h-103.03l-6.18,7.78c-1.04,1.31-.11,3.25,1.57,3.25h52.52c1.56,0,2.52,1.71,1.71,3.04l-13.66,22.34h0s-.6.97-.6.97h.04s-9.31,16.27-9.31,16.27h22.76c1.1,0,2,.9,2,2v368.9c0,1.1-.89,1.99-1.99,2l-320.56,1.96-9.85,13.52-8.28,10.44c-1.04,1.31-.1,3.24,1.57,3.24h29.44c1.56,0,2.52,1.71,1.71,3.05l-13.44,22h373.58c1.1,0,2-.9,2-2V161.62c0-1.1-.9-2-2-2Z"/>
  </g>
</svg>